<?xml version="1.0" encoding="utf-8"?>
<!-- Generator: Adobe Illustrator 17.0.2, SVG Export Plug-In . SVG Version: 6.00 Build 0)  -->
<!DOCTYPE svg PUBLIC "-//W3C//DTD SVG 1.1//EN" "http://www.w3.org/Graphics/SVG/1.1/DTD/svg11.dtd">
<svg version="1.1" id="Layer_1" xmlns="http://www.w3.org/2000/svg" xmlns:xlink="http://www.w3.org/1999/xlink" x="0px" y="0px"
	 width="191px" height="44.459px" viewBox="0 0 191 44.459" enable-background="new 0 0 191 44.459" xml:space="preserve">
<g>
	<path d="M136.668,23.541c0,15.82-13.096,15.996-16.436,15.996c-0.703,0-2.197,0.088-3.779,0.088s-3.076-0.088-3.779-0.088
		c-3.34,0-16.436-0.176-16.436-15.996c0-3.604,1.23-6.328,3.252-8.525c-0.264-0.791-0.264-5.361,1.406-9.668
		c0,0,4.043,0.439,10.02,4.57c1.318-0.352,3.428-0.527,5.537-0.527s4.307,0.176,5.537,0.527c6.064-4.131,10.02-4.57,10.02-4.57
		c1.758,4.307,1.67,8.877,1.406,9.668C135.438,17.212,136.668,19.937,136.668,23.541z M131.307,28.638
		c0-1.934-0.703-3.779-2.373-5.273c-2.637-2.461-7.207-1.143-12.393-1.143h-0.088c0,0,0,0-0.088,0
		c-5.186,0-9.668-1.318-12.393,1.143c-1.67,1.494-2.285,3.34-2.285,5.273c0,7.998,6.416,8.965,14.678,8.965h0.176
		C124.803,37.603,131.307,36.636,131.307,28.638z M112.322,29.253c0,2.197-1.23,3.955-2.812,3.955s-2.9-1.758-2.9-3.955
		s1.318-3.955,2.9-3.955S112.322,27.056,112.322,29.253z M126.297,29.253c0,2.197-1.23,3.955-2.812,3.955s-2.9-1.758-2.9-3.955
		s1.318-3.955,2.9-3.955S126.297,27.056,126.297,29.253z"/>
</g>
<g>
	<path d="M184.485,22.396l-16.699,14.502V28.46h-15.381V16.244h15.381v-8.35L184.485,22.396z"/>
</g>
<g>
	<path d="M29.268,14.048c-0.703,7.295-6.152,9.053-10.195,10.283c-3.955,1.23-6.68,2.109-7.207,6.416
		c1.846,0.791,3.076,2.637,3.076,4.834c0,2.9-2.373,5.273-5.273,5.273s-5.273-2.373-5.273-5.273c0-2.197,1.318-4.043,3.164-4.922
		V14.048c-1.846-0.879-3.164-2.725-3.164-4.834c0-2.988,2.373-5.273,5.273-5.273s5.273,2.285,5.273,5.273
		c0,2.109-1.318,3.955-3.164,4.834v8.965c1.846-1.318,4.131-2.021,6.064-2.637c3.955-1.23,6.768-2.109,7.207-6.416
		c-1.758-0.791-3.076-2.637-3.076-4.746c0-2.988,2.373-5.273,5.273-5.273s5.273,2.285,5.273,5.273
		C32.52,11.411,31.201,13.257,29.268,14.048z M9.668,12.202c1.67,0,3.076-1.318,3.076-2.988c0-1.758-1.406-3.076-3.076-3.076
		S6.68,7.456,6.68,9.214C6.68,10.884,7.998,12.202,9.668,12.202z M12.744,35.581c0-1.758-1.406-3.076-3.076-3.076
		S6.68,33.823,6.68,35.581c0,1.67,1.318,2.988,2.988,2.988S12.744,37.251,12.744,35.581z M30.322,9.214
		c0-1.758-1.406-3.076-3.076-3.076s-2.988,1.318-2.988,3.076c0,1.67,1.318,2.988,2.988,2.988S30.322,10.884,30.322,9.214z"/>
</g>
<g>
	<path d="M59.326,23.623c0,3.293-0.828,5.865-2.488,7.714c-1.658,1.85-3.951,2.774-6.875,2.774c-1.807,0-3.41-0.424-4.812-1.272
		c-1.401-0.848-2.482-2.064-3.245-3.65s-1.143-3.441-1.143-5.567c0-3.293,0.823-5.859,2.47-7.696
		c1.647-1.837,3.932-2.756,6.858-2.756c2.826,0,5.072,0.94,6.738,2.82C58.494,17.872,59.326,20.416,59.326,23.623z M43.935,23.623
		c0,2.581,0.516,4.547,1.548,5.899c1.033,1.352,2.551,2.027,4.555,2.027c2.002,0,3.523-0.673,4.562-2.019
		c1.037-1.345,1.557-3.315,1.557-5.908c0-2.568-0.52-4.52-1.557-5.853c-1.039-1.333-2.572-2-4.6-2c-2.004,0-3.516,0.658-4.535,1.973
		C44.444,19.058,43.935,21.018,43.935,23.623z"/>
	<path d="M78.518,33.743v-13.07c0-1.646-0.375-2.875-1.125-3.687s-1.924-1.217-3.521-1.217c-2.114,0-3.663,0.571-4.646,1.714
		c-0.983,1.143-1.475,3.029-1.475,5.659v10.6h-3.061V13.54h2.489l0.497,2.765h0.147c0.627-0.996,1.506-1.767,2.637-2.313
		c1.13-0.547,2.39-0.82,3.778-0.82c2.434,0,4.265,0.587,5.493,1.76c1.229,1.174,1.844,3.051,1.844,5.632v13.18H78.518z"/>
</g>
</svg>
